<svg id="Group_3" data-name="Group 3" xmlns="http://www.w3.org/2000/svg" xmlns:xlink="http://www.w3.org/1999/xlink" width="126.023" height="126.023" viewBox="0 0 126.023 126.023">
  <defs>
    <clipPath id="clip-path">
      <rect id="Rectangle_5" data-name="Rectangle 5" width="126.023" height="126.023" fill="none"/>
    </clipPath>
  </defs>
  <g id="Group_2" data-name="Group 2" clip-path="url(#clip-path)">
    <path id="Path_4" data-name="Path 4" d="M63.011,126.023A63.028,63.028,0,0,1,38.484,4.952,63.028,63.028,0,0,1,87.538,121.071a62.632,62.632,0,0,1-24.527,4.952M56.2,123.68q.364.01.734.01a35.122,35.122,0,0,0,6.367-.627l-.631-.221-.785-.3-.777-.316-.431-.185a49.859,49.859,0,0,1-6.562,1.225q1.039.235,2.086.41m14.834-.819q.882.062,1.752.063h.1A56.242,56.242,0,0,0,81.1,120l-.314-.091-.592-.19-.6-.209-.2-.074a72.88,72.88,0,0,1-8.371,3.426m-7.469-1.626a29.683,29.683,0,0,0,3.376,1,65.345,65.345,0,0,0,10.262-3.75l-.74-.368-.627-.333-.637-.356-.2-.116.07-.181-.088-.051-.1.165-.489-.291a77.95,77.95,0,0,1-10.834,4.279m-14.532.5q.364.008.736.009a40.15,40.15,0,0,0,8.321-.952l-.525-.282c-.178-.1-.318-.174-.459-.254l-.78-.453-.775-.472-1.155-.748a46.6,46.6,0,0,1-9.191,1.467,39.884,39.884,0,0,0,3.828,1.686m-6.87-1.168a.989.989,0,0,1,.13.035q.217.077.439.148l-.525-.3-.594-.348q-.454-.037-.868-.074.706.277,1.418.535m14.655-2.636a38.139,38.139,0,0,0,4.052,2.191,72.659,72.659,0,0,0,11.72-4.334l-1.09-.767-.908-.673-.987-.77-.519-.419a82.463,82.463,0,0,1-12.268,4.772m24.928.332a16.405,16.405,0,0,0,2.064.466,82.45,82.45,0,0,0,10.149-5.982l-.852-.658-.507-.413a98.165,98.165,0,0,1-10.854,6.587m13.832-4.481a87.214,87.214,0,0,1-7.945,4.946l.052-.01a68.631,68.631,0,0,0,8.217-4.8l.04-.085-.062-.036-.094.156-.225-.129Zm-53.441,4.551c.234.006.472.008.711.008a43.727,43.727,0,0,0,9.564-1.163l-.795-.606-.77-.613-.761-.63-.758-.651-.749-.669-.3-.272.026-.042A50.763,50.763,0,0,1,37.8,115.291a44.232,44.232,0,0,0,4.333,3.047m-11.867-3.644q.573.38,1.158.742c.443.267.9.534,1.355.8.854.391,1.523.681,2.1.907a20.219,20.219,0,0,0,3.529.875l-.531-.384-.825-.624-.816-.646-.8-.663-.5-.427a41.144,41.144,0,0,1-4.677-.576m46.165,1.257a28.692,28.692,0,0,0,2.983,1.483,94.791,94.791,0,0,0,11.772-6.971l-.891-.814L89.617,109l.155-.2-.047-.045-.175.184-.569-.55a107.28,107.28,0,0,1-12.546,7.561m-26.016-2.82a49.1,49.1,0,0,0,4.367,3.465,78.052,78.052,0,0,0,12.742-4.747l-.626-.555-.422-.38-.686-.635-.688-.654-1.1-1.077-.471-.475a84.947,84.947,0,0,1-13.119,5.059M71,112.224c1.214.967,2.42,1.839,3.6,2.605a104.6,104.6,0,0,0,13.065-7.755l-1.495-1.542-1.451-1.546A114.211,114.211,0,0,1,71,112.224M35.654,113.47c.219.005.44.007.663.007a45.967,45.967,0,0,0,10.335-1.3l-.382-.381-.737-.761-.732-.782-.9-1-.54-.619-.711-.838-.322-.392A50.559,50.559,0,0,1,31.273,109a50.9,50.9,0,0,0,4.38,4.471m-10.065-2.327a19.813,19.813,0,0,0,7.2,2.138l-.554-.546-.761-.784-.744-.8s-.59-.657-.735-.822l-.722-.84-.429-.518a26.5,26.5,0,0,1-6.684-1.112,47.241,47.241,0,0,0,3.426,3.282M97.242,112.6c.124.062.235.111.335.152a77.007,77.007,0,0,0,8.186-6.772c-.009-.119-.021-.244-.035-.372a93.772,93.772,0,0,1-8.486,6.991m-52.89-5.736a62.5,62.5,0,0,0,4.452,4.775,81.375,81.375,0,0,0,13.358-5l-1.284-1.4-.7-.784-1.024-1.186-.686-.814-.63-.762a85.8,85.8,0,0,1-13.487,5.172m49.88,3.659c.491.4.954.759,1.383,1.068a92.476,92.476,0,0,0,9.719-8.041l-.132-.394-.237-.646-.257-.637a107.348,107.348,0,0,1-10.475,8.65m-28.844-3.357c1.356,1.363,2.71,2.625,4.042,3.766A111.834,111.834,0,0,0,83.444,102.6l-1.691-1.893-1.222-1.4-.7-.805a118.713,118.713,0,0,1-14.447,8.66m25.221.069c.782.765,1.524,1.461,2.215,2.079a105.655,105.655,0,0,0,11.091-9.175c0-.007-.643-1.259-.643-1.259l-.711-1.3-.085-.148a117.6,117.6,0,0,1-11.867,9.8m-60.291-.1a46.818,46.818,0,0,0,10.7-1.368l-.559-.729-.681-.917-.669-.929-.66-.947-.647-.958-.635-.967-.233-.369A49.363,49.363,0,0,1,25.8,101.512a57.943,57.943,0,0,0,3.922,5.617c.2,0,.4.006.6.006m-10.806-2.328a20.541,20.541,0,0,0,7.781,2.187c-.073-.1-.873-1.192-.873-1.192l-.652-.935-.636-.951-.621-.967-.6-.979-.293-.494a25.188,25.188,0,0,1-7.453-1.412,50.16,50.16,0,0,0,3.347,4.743m66.825-1.99c1.027,1.112,2.017,2.152,2.955,3.106A116.123,116.123,0,0,0,101.525,95.8l-1.256-2.019-1.053-1.613a119.7,119.7,0,0,1-12.878,10.644M59.652,100.8c1.447,1.755,2.908,3.411,4.357,4.941A116.257,116.257,0,0,0,78.6,97.058l-.039-.047.2-.215-.04-.049-.225.191-2.2-2.63-1.907-2.329a120.083,120.083,0,0,1-14.74,8.823M38.876,99.438c1.319,2.035,2.715,3.985,4.162,5.814a82.778,82.778,0,0,0,13.567-5.1L55.2,98.337l-1.046-1.4-1.02-1.4-.858-1.214a84.587,84.587,0,0,1-13.4,5.119m68.6,4.859a66.48,66.48,0,0,0,5-5.683c-1.574,1.831-3.268,3.634-5.065,5.391.022.1.043.2.062.292m-1.288-3.843q.374.853.654,1.628a79.592,79.592,0,0,0,7.251-8.27c.016-.634.015-1.356,0-2.081a94.524,94.524,0,0,1-7.9,8.723m-24.71-3.11c1.25,1.454,2.458,2.828,3.606,4.1a124.227,124.227,0,0,0,13.08-10.815c-.974-1.385-2.154-3.035-3.178-4.447A130.862,130.862,0,0,1,81.475,97.343m-56.3,2.28a46.34,46.34,0,0,0,10.69-1.382l-.577-.971-.58-1.007-.569-1.02-.558-1.032-.547-1.044L32.5,92.113l-.167-.34a47.279,47.279,0,0,1-10.788,1.48,64.25,64.25,0,0,0,3.14,6.366l.493,0M14.6,97.366a20.529,20.529,0,0,0,7.905,2.146c-.129-.236-.232-.428-.334-.621l-.526-1.019-.509-1.03-.5-1.047s-.39-.858-.478-1.057c0,0-.377-.868-.46-1.066l-.19-.461a23.709,23.709,0,0,1-7.553-1.538A52.329,52.329,0,0,0,14.6,97.366m39.46-3.922c1.425,2.029,2.887,3.986,4.356,5.834a117.977,117.977,0,0,0,14.767-8.8l-2.228-2.8L68.649,84.72a118.449,118.449,0,0,1-14.588,8.724m49.865,2.592c.538.942,1.021,1.841,1.445,2.689a90.96,90.96,0,0,0,8.531-9.686c-.015-.091-.081-.473-.081-.473l-.154-.792-.122-.551-.093-.4-.288-1.079a103.242,103.242,0,0,1-9.238,10.289M34.221,91.275c1.119,2.235,2.322,4.4,3.588,6.469a81.937,81.937,0,0,0,13.36-5.032l-.917-1.374-1.1-1.7-1.259-2.009-.772-1.27a81.185,81.185,0,0,1-12.9,4.913m41.811-.458c1.452,1.787,2.863,3.491,4.21,5.081A129.074,129.074,0,0,0,93.849,84.647L91.843,82.03,89.8,79.441A132.546,132.546,0,0,1,76.032,90.818m-67,1.051a.81.81,0,0,1,.075.115l.012.023a12.685,12.685,0,0,0,2.372,3.126l-.366-.806s-.361-.837-.444-1.036c0,0-.347-.848-.424-1.046l-.4-1.055-.238-.657a15.073,15.073,0,0,1-1.876-1.3c.081.163.3.6.3.6.145.284.292.566.443.845a.837.837,0,0,1,.1.346q.221.428.449.852M100.668,90.8c.835,1.255,1.6,2.465,2.3,3.612a100.523,100.523,0,0,0,9.52-10.777c-.033-.092-.367-.99-.367-.99l-.287-.726-.454-1.072-.516-1.141-.094-.2a109.919,109.919,0,0,1-10.1,11.292M48.884,85.5c1.319,2.18,2.685,4.308,4.07,6.346a116.46,116.46,0,0,0,14.517-8.655l-3.959-5.248-.608-.821A113.822,113.822,0,0,1,48.884,85.5M21.14,91.346A44.569,44.569,0,0,0,31.479,90l-.541-1.178-.479-1.078-.467-1.09-.456-1.1L28.9,83.944l-.235-.608-.108-.292A44.01,44.01,0,0,1,18.466,84.4a70.6,70.6,0,0,0,2.3,6.939c.124,0,.249,0,.375,0M11.063,89.222a19.959,19.959,0,0,0,7.675,2.031s-.249-.67-.337-.909l-.386-1.1-.37-1.108-.352-1.112L16.959,85.9l-.318-1.131-.11-.414a21.932,21.932,0,0,1-7.216-1.535,56.473,56.473,0,0,0,1.748,6.4m104.767.234q.107.883.143,1.736a52.677,52.677,0,0,0,4.1-7.059c.048-.208.093-.418.135-.628l.136-.728.044-.276a70.114,70.114,0,0,1-4.562,6.955M30.4,82.559c.9,2.372,1.893,4.706,2.96,6.956A78.8,78.8,0,0,0,46.128,84.7l-1.3-2.27-1.155-2.093-1.125-2.115-.117-.227A75.861,75.861,0,0,1,30.4,82.559m39.88,1c1.529,1.974,3.051,3.906,4.54,5.759A130.754,130.754,0,0,0,88.582,77.946c-1.471-1.783-3.24-3.9-4.7-5.628a130.787,130.787,0,0,1-13.6,11.244m26.148,1.223c1.132,1.53,2.2,3.02,3.174,4.444a107.545,107.545,0,0,0,10.241-11.574c-.052-.1-.82-1.511-.82-1.511l-.663-1.156-.677-1.124-.294-.477-.327-.516A114.25,114.25,0,0,1,96.432,84.785M4.207,79.311q.438,1.886,1.026,3.717a12.163,12.163,0,0,0,3.446,4.618L8.44,86.82l-.293-1.088-.273-1.1-.253-1.108L7.39,82.413,7.273,81.8a13.584,13.584,0,0,1-3.067-2.487m110.367,4.58c.338,1.052.617,2.085.835,3.092a61.726,61.726,0,0,0,5.323-8.947c-.056-1.025-.154-2.215-.276-3.378a74.944,74.944,0,0,1-5.882,9.233M44.178,77.138c1.192,2.278,2.438,4.526,3.715,6.7a111.866,111.866,0,0,0,13.864-8.271l-1.688-2.314L57.253,69.33a106.834,106.834,0,0,1-13.075,7.808m47.057.916c1.42,1.771,2.779,3.515,4.053,5.2A111.981,111.981,0,0,0,105.962,71.21c-1.168-1.651-2.626-3.635-3.894-5.307A115.672,115.672,0,0,1,91.235,78.054M18.2,82.485a41.689,41.689,0,0,0,9.689-1.265c-.027-.075-.686-2.01-.686-2.01l-.515-1.6-.563-1.872-.5-1.79a39.76,39.76,0,0,1-9.075,1.2c.356,2.481.833,4.941,1.422,7.337H18.2M8.882,80.55A18.724,18.724,0,0,0,16.036,82.4s-.262-1.147-.262-1.147l-.245-1.148L15.3,78.951l-.212-1.163-.194-1.17-.176-1.169-.048-.352a19.8,19.8,0,0,1-6.556-1.442,61,61,0,0,0,.767,6.895M64.53,75.971c1.528,2.058,3.064,4.092,4.577,6.063A129.064,129.064,0,0,0,82.633,70.851l-2.822-3.22L77.6,65.166A125.993,125.993,0,0,1,64.53,75.971m47.535,1.8c.673,1.366,1.266,2.715,1.772,4.031a68.911,68.911,0,0,0,6.18-10.281c-.35-1.35-.816-2.951-1.283-4.418a72.755,72.755,0,0,1-6.67,10.668m-84.62-4.306c.671,2.451,1.439,4.89,2.29,7.272a73.678,73.678,0,0,0,11.814-4.472c-.047-.092-1.194-2.416-1.194-2.416l-1.338-2.841-.745-1.646a68.879,68.879,0,0,1-10.826,4.1m-24.063,1.3a11.417,11.417,0,0,0,3.472,4.49c-.015-.1-.188-1.428-.188-1.428L6.541,76.7l-.105-1.141-.083-1.144-.064-1.143-.021-.564a12.2,12.2,0,0,1-3.281-2.893,48.813,48.813,0,0,0,.4,4.956m81.945-3.839c1.614,1.884,3.189,3.769,4.7,5.622a113.426,113.426,0,0,0,10.822-12.2c-.091-.113-1.24-1.482-1.24-1.482l-1.221-1.412-1.524-1.7-.809-.873A114.175,114.175,0,0,1,85.326,70.932m22.986.284c1.031,1.591,1.971,3.173,2.806,4.725a74.038,74.038,0,0,0,6.787-11.225c-.069-.169-.322-.758-.322-.758l-.264-.6-.4-.854s-.33-.684-.417-.857l-.438-.856-.458-.853-.13-.234a81.033,81.033,0,0,1-7.168,11.515M40,68.523c1.036,2.313,2.142,4.626,3.292,6.9a104.7,104.7,0,0,0,12.842-7.667c-.289-.411-1.279-1.824-1.279-1.824l-2.293-3.307-.774-1.132A97.038,97.038,0,0,1,40,68.523m18.863-.334c1.49,2.087,3.005,4.176,4.517,6.229A124.17,124.17,0,0,0,76.3,63.736l-2-2.167-2.543-2.71-.708-.746A117.893,117.893,0,0,1,58.865,68.189M121.925,71.7q.248,1.3.393,2.6a30.255,30.255,0,0,0,1.662-6.43c.01-.247.022-.564.03-.881,0,0,.008-.511.009-.6a46.558,46.558,0,0,1-2.094,5.316M16.353,73.222a37.811,37.811,0,0,0,8.777-1.145c-.026-.105-.516-2.158-.516-2.158l-.361-1.634-.239-1.165L23.79,65.95l-.234-1.3a34.819,34.819,0,0,1-7.79,1.014c.055,2.528.231,5.063.526,7.557ZM8.037,71.528a17.08,17.08,0,0,0,6.389,1.624c-.006-.053-.14-1.335-.14-1.335l-.1-1.184-.087-1.185-.07-1.193-.052-1.189-.036-1.187,0-.269A17.327,17.327,0,0,1,8.3,64.335a65.272,65.272,0,0,0-.259,7.193m17.33-7.346c.433,2.477.965,4.966,1.587,7.419a66.938,66.938,0,0,0,10.542-4l-.773-1.826-.9-2.212-.675-1.722L34.7,60.656a60.3,60.3,0,0,1-9.33,3.526M3.006,66.344A10.283,10.283,0,0,0,6.221,70.4l0-.845c0-.287.02-1.064.02-1.064q.016-.535.038-1.067s.04-.813.056-1.077l.1-1.449c.027-.328.056-.659.088-.988.016-.172.031-.329.047-.477A10.7,10.7,0,0,1,3.56,60.646a51.947,51.947,0,0,0-.554,5.7M103.3,64.272c1.405,1.767,2.714,3.535,3.9,5.273a77.3,77.3,0,0,0,7.152-11.781c-.1-.157-.443-.708-.443-.708-.132-.21-.264-.418-.4-.624l-.57-.859-.593-.86-.614-.858L111.1,53l-.456-.6A81.935,81.935,0,0,1,103.3,64.272m-24.268-.48c1.724,1.9,3.413,3.8,5.037,5.677a111.924,111.924,0,0,0,10.648-12c-.095-.1-1.453-1.479-1.453-1.479l-1.28-1.267L90.29,53.107l-.96-.894a109.694,109.694,0,0,1-10.3,11.58m40.893.957a41.789,41.789,0,0,1,1.324,4.016,35.231,35.231,0,0,0,2.371-8.4c-.039-.27-.082-.542-.127-.813,0,0-.127-.722-.166-.929l-.189-.929s-.175-.777-.211-.925l-.057-.228a46.281,46.281,0,0,1-2.945,8.207M36.411,59.825c.872,2.312,1.815,4.637,2.812,6.931A94.924,94.924,0,0,0,50.7,59.894L48.332,56.36l-1.726-2.614a85.008,85.008,0,0,1-10.195,6.08m16.972.538c1.434,2.087,2.9,4.184,4.361,6.251a116.024,116.024,0,0,0,11.972-9.9c-.347-.36-2.694-2.77-2.694-2.77l-2.65-2.67a107.5,107.5,0,0,1-10.989,9.086M16.126,56.139c-.245,2.514-.372,5.063-.379,7.6a33.1,33.1,0,0,0,7.5-.992c-.021-.13-.227-1.557-.227-1.557l-.154-1.163-.139-1.17L22.6,57.691l-.174-1.906-.036-.442a29.074,29.074,0,0,1-6.261.8M8.511,62.33a14.951,14.951,0,0,0,5.408,1.345l.014-1.149.011-.5.038-1.161.055-1.169c.015-.289.069-1.155.069-1.155.027-.39.1-1.294.1-1.294l.01-.108c.025-.307.052-.615.083-.922l.014-.139a14.452,14.452,0,0,1-4.5-1.046,68.3,68.3,0,0,0-1.3,7.3M97.246,57.3c1.688,1.8,3.3,3.62,4.8,5.439a78.6,78.6,0,0,0,7.281-11.956c-1.454-1.663-3.259-3.634-4.809-5.255A80.583,80.583,0,0,1,97.246,57.3m19.229.342a51.442,51.442,0,0,1,2.472,4.783,38.611,38.611,0,0,0,2.813-9.587c-.57-1.428-1.3-3.11-2.018-4.672a46.671,46.671,0,0,1-3.267,9.476m-44.011-.887c1.779,1.861,3.543,3.742,5.258,5.612A107.821,107.821,0,0,0,87.9,50.907c-.1-.085-.956-.85-1.162-1.03L85.3,48.636l-1.248-1.054-.913-.756-1.075-.872a102.686,102.686,0,0,1-9.6,10.8M24.195,54.879c.187,2.439.474,4.918.856,7.39a58.786,58.786,0,0,0,8.979-3.424c-.043-.118-.509-1.436-.509-1.436l-.734-2.16-.833-2.606-.188-.611a50.442,50.442,0,0,1-7.57,2.847M4.063,57.867A8.9,8.9,0,0,0,6.83,61.31l.135-.954L7.147,59.2l.2-1.159.223-1.157.243-1.154.261-1.147.112-.454A8.229,8.229,0,0,1,5.711,51.77a54.791,54.791,0,0,0-1.648,6.1M1.909,59.188a.749.749,0,0,1,.031.263l-.016.264.146-.851.136-.713q-.058-.149-.112-.3c0,.028,0,.057-.005.085a.831.831,0,0,1-.122.392q-.032.429-.058.86m46.267-6.552c1.333,2.019,2.714,4.076,4.117,6.135a105.448,105.448,0,0,0,10.712-8.855l-3.511-3.423-1.8-1.724a94,94,0,0,1-9.514,7.866M33.462,51.2c.685,2.243,1.449,4.528,2.277,6.813a83.212,83.212,0,0,0,9.818-5.874l-1.372-2.125-2.393-3.777a66.634,66.634,0,0,1-8.33,4.962M90.5,50.645c1.865,1.713,3.673,3.47,5.39,5.239a77.656,77.656,0,0,0,7.187-11.775c-1.715-1.538-3.819-3.349-5.586-4.809A77.285,77.285,0,0,1,90.5,50.645m21.06-.154a63.321,63.321,0,0,1,3.73,5.218,40.657,40.657,0,0,0,3.088-10.315c-.122-.216-.444-.762-.444-.762s-.368-.615-.468-.775l-.563-.888-.584-.879-.6-.87-.627-.865-.1-.129a46.27,46.27,0,0,1-3.431,10.265m-45.8-.563c1.79,1.778,3.586,3.6,5.356,5.43a100.853,100.853,0,0,0,9.418-10.6c-1.917-1.459-4.235-3.179-6.137-4.555a93.432,93.432,0,0,1-8.637,9.721M3.2,50.7a16.327,16.327,0,0,0-.076,3.53l.217-.78.315-1.057.338-1.054.358-1.047.225-.629a10.746,10.746,0,0,1-.515-1.883Q3.575,49.224,3.2,50.7M17.62,46.749c-.543,2.44-.973,4.943-1.281,7.46a27.873,27.873,0,0,0,5.918-.808c-.011-.211-.052-1.05-.052-1.05-.015-.312-.053-1.4-.053-1.4-.01-.314-.031-1.345-.031-1.345-.007-.446-.011-.887-.011-1.327,0-.351.01-1.279.01-1.279l.016-.8a22.539,22.539,0,0,1-4.516.552m-7.334,6.384a12.466,12.466,0,0,0,4.237,1.023c.016-.128.208-1.565.208-1.565l.179-1.182.2-1.177.213-1.173.228-1.163.266-1.245a9.515,9.515,0,0,1-3.172-.768,69.964,69.964,0,0,0-2.352,7.25m13.669-7.406c-.062,2.35-.025,4.763.111,7.194a49.17,49.17,0,0,0,7.151-2.744c-.035-.121-.523-1.877-.523-1.877l-.562-2.147-.388-1.587-.214-.922a35.393,35.393,0,0,1-5.575,2.083M6.52,49.5a7.271,7.271,0,0,0,2.172,2.679l.323-1.141L9.359,49.9l.363-1.136.382-1.132.4-1.126.42-1.117.143-.365A6.259,6.259,0,0,1,9.307,43.32,58.2,58.2,0,0,0,6.52,49.5m36.823-4.349c1.21,1.917,2.477,3.888,3.778,5.875a92.114,92.114,0,0,0,9.166-7.577c-1.659-1.537-3.6-3.317-5.159-4.735a78.859,78.859,0,0,1-7.784,6.436M31.222,42.832c.485,2.125,1.052,4.31,1.69,6.514a69.406,69.406,0,0,0,7.878-4.722l-1.417-2.307-1.919-3.192a51.093,51.093,0,0,1-6.232,3.706m52,1.572c2,1.6,3.954,3.254,5.84,4.939a74.776,74.776,0,0,0,6.88-11.249c-1.925-1.38-4.269-2.992-6.211-4.274A72.216,72.216,0,0,1,83.225,44.4m22.18-.736c1.709,1.674,3.324,3.412,4.816,5.181a41.6,41.6,0,0,0,3.218-10.586c-1.383-1.555-3.106-3.384-4.63-4.922a45.258,45.258,0,0,1-3.4,10.328M59.066,43.44c1.762,1.662,3.551,3.384,5.332,5.133A91.7,91.7,0,0,0,72.827,39.1c-.076-.052-1.7-1.144-1.7-1.144l-1.436-.94-1.411-.9-1.75-1.084a81.714,81.714,0,0,1-7.464,8.409m61.2,1.619q.939,1.717,1.726,3.49a16.942,16.942,0,0,0-.7-4.281q-.39-1.21-.835-2.415a26.527,26.527,0,0,1-.191,3.205M5.751,43.576a13.094,13.094,0,0,0-.016,3.167l.3-.692L6.5,45.023,6.988,44l.505-1.011.529-1.006.31-.569A10.991,10.991,0,0,1,7.9,39.681c-.646,1.1-1.3,2.25-1.86,3.293-.09.186-.19.393-.289.6m14.5-5.9a73.958,73.958,0,0,0-2.17,7.137,21.754,21.754,0,0,0,4.127-.592c.008-.162.092-1.61.092-1.61l.083-1.117.1-1.107.113-1.1.128-1.095.105-.8a15.409,15.409,0,0,1-2.575.289m-6.9,6.434a9.68,9.68,0,0,0,2.9.665c.038-.152.418-1.611.418-1.611l.319-1.145.338-1.143.353-1.128.372-1.124.366-1.054a7.872,7.872,0,0,1-1.69-.436,70.817,70.817,0,0,0-3.374,6.978m11.325-7.172c-.309,2.2-.525,4.474-.641,6.789a38.517,38.517,0,0,0,5.086-1.972c-.026-.122-.351-1.766-.351-1.766l-.3-1.631-.319-1.976-.1-.686a27.18,27.18,0,0,1-3.378,1.242m14.3,1.127c1.046,1.746,2.17,3.58,3.35,5.469a76.645,76.645,0,0,0,7.37-6.09c-1.571-1.372-3.4-2.948-4.877-4.211a61.574,61.574,0,0,1-5.843,4.832M10.345,41.42a5.453,5.453,0,0,0,1.462,1.792c.021-.048.456-1.053.546-1.256l.5-1.1.523-1.095.538-1.084.558-1.076.575-1.063.144-.259a5.185,5.185,0,0,1-.905-.9,61.339,61.339,0,0,0-3.943,6.047m65.216-2.756c2.081,1.455,4.142,2.978,6.148,4.541a70.137,70.137,0,0,0,6.385-10.422c-.111-.067-1.336-.79-1.336-.79l-1.012-.578-1.022-.568-2.072-1.1-1.235-.626a65.569,65.569,0,0,1-5.856,9.546m39.827-.933a53.217,53.217,0,0,1,3.261,4.582,17.673,17.673,0,0,0-1.188-7.156q-.958-1.758-2.078-3.448a24.339,24.339,0,0,1,0,6.022m-17.04-.224c1.951,1.521,3.826,3.118,5.591,4.76a41.285,41.285,0,0,0,3.225-10.512q-.241-.214-.485-.425l-.842-.713-.862-.7-.878-.691-.9-.679-.913-.666-.658-.465a43.147,43.147,0,0,1-3.282,10.1M52.477,37.4c1.7,1.513,3.438,3.1,5.188,4.728a80.13,80.13,0,0,0,7.2-8.079c-2.012-1.15-4.389-2.468-6.311-3.5A63.92,63.92,0,0,1,52.477,37.4m-22.73-2.507c.271,1.942.626,3.965,1.059,6.035A54.209,54.209,0,0,0,36.5,37.5c-.333-.571-1.046-1.806-1.046-1.806l-.941-1.652-.828-1.482a38.512,38.512,0,0,1-3.935,2.329M9.682,36.885A9.987,9.987,0,0,0,9.671,39.1L10.4,37.94l.633-.97.654-.962.671-.951.686-.935.368-.484a7.465,7.465,0,0,1-.241-.975c-1.028,1.171-2.129,2.478-3.062,3.641-.135.183-.28.38-.424.582m57.984-3.374c2.119,1.286,4.234,2.647,6.307,4.057a63.784,63.784,0,0,0,5.709-9.295c-.1-.045-1.762-.812-1.762-.812l-1.092-.484L76.2,26.7l-1.078-.453-1.082-.439L72.7,25.288a57.364,57.364,0,0,1-5.032,8.223m-32.5-1.995C36.051,33.09,37,34.738,38,36.434a59.327,59.327,0,0,0,5.349-4.419c-1.467-1.192-3.127-2.523-4.462-3.578a42.537,42.537,0,0,1-3.723,3.079m55.4.553c2.143,1.339,4.227,2.762,6.216,4.241a39.9,39.9,0,0,0,3.112-10.052c-1.924-1.169-4.288-2.526-6.289-3.611a40.173,40.173,0,0,1-3.039,9.422m-44.416-.133c1.587,1.323,3.232,2.733,4.907,4.2a66.9,66.9,0,0,0,5.78-6.478l-1.445-.705-1.549-.732-.971-.444-1.926-.846-.272-.115a48.906,48.906,0,0,1-4.525,5.115M24.008,29.1a68.49,68.49,0,0,0-3.026,6.63,15.084,15.084,0,0,0,2.135-.338c.028-.17.182-1.053.182-1.053l.221-1.177.3-1.452.237-1.034.253-1.026.152-.582c-.146.015-.294.025-.457.032M17.7,35.432a6.652,6.652,0,0,0,1.4.289c.066-.171.347-.874.347-.874.1-.25.413-1.009.413-1.009l.348-.818.48-1.08.5-1.069.511-1.053.459-.907-.08-.025A70.458,70.458,0,0,0,17.7,35.432m91.46-4.373a59,59,0,0,1,4.543,4.646,18.352,18.352,0,0,0-1.151-7.845,49.006,49.006,0,0,0-3.629-3.98,22.932,22.932,0,0,1,.237,7.179m-82.777-2.4c-.55,1.987-1.013,4.067-1.381,6.2a26.613,26.613,0,0,0,2.8-1.112c-.014-.116-.2-1.879-.2-1.879l-.11-1.309-.062-.922-.065-1.326c-.333.13-.663.245-.987.344M15.513,33.771a3.475,3.475,0,0,0,.657.8c.049-.083.641-1.062.789-1.3l.66-1.042L18.3,31.2l.694-1.017.711-1,.579-.79a64.566,64.566,0,0,0-4.766,5.378m13.576-6.25c.056,1.714.191,3.519.4,5.383a36.951,36.951,0,0,0,3.284-1.991L31.52,28.553l-.967-1.886c-.486.311-.976.6-1.464.855M11.373,31.259q-.335.724-.608,1.428l.589-.674.69-.758.715-.751.463-.47c.061-.33.117-.614.177-.878a26.989,26.989,0,0,0-2.026,2.1m48.321-2.227c2.1,1.085,4.216,2.254,6.313,3.488a55.983,55.983,0,0,0,4.873-7.906c-.068-.025-1.518-.531-1.518-.531l-.881-.3-1.1-.356-1.1-.341-1.1-.326-1.421-.4a47.952,47.952,0,0,1-4.063,6.665m-44.734,1.73a6.7,6.7,0,0,0-.021.944l.373-.452.781-.91.8-.9.814-.883.921-.96c-1.112.911-2.255,1.88-3.269,2.776-.124.12-.258.248-.394.38m67.26-3.35c2.277,1.129,4.518,2.351,6.682,3.643a37.536,37.536,0,0,0,2.908-9.327c-.154-.072-.909-.421-.909-.421l-1.126-.5-1.147-.489-.885-.361-1.224-.478-.472-.18-1.109-.4a36.353,36.353,0,0,1-2.719,8.517M40.2,27.164c1.442,1.11,2.946,2.3,4.486,3.566a51.54,51.54,0,0,0,4.172-4.657l-1.24-.487-2.072-.768-1.35-.47-1.177-.387a37.017,37.017,0,0,1-2.819,3.2M32.01,25.643c.68,1.332,1.431,2.746,2.241,4.222a40.416,40.416,0,0,0,3.135-2.589L35.805,26.1,33.69,24.587l-.221-.153a18.532,18.532,0,0,1-1.46,1.21m69.918-.282a64.43,64.43,0,0,1,5.48,4.158,18.353,18.353,0,0,0-1.083-8.014,51.022,51.022,0,0,0-4.782-3.609,21.5,21.5,0,0,1,.385,7.465M51.8,25.316c2.029.86,4.1,1.813,6.166,2.841A46.75,46.75,0,0,0,61.847,21.9c-2.279-.515-4.947-1.067-7.086-1.464A37.319,37.319,0,0,1,51.8,25.316M16.057,26.959q-.162.358-.3.706c.048-.043.8-.685.968-.825l.839-.682.854-.667.2-.147c-.758.451-1.51.914-2.193,1.352l-.363.262M73.491,23.6c2.361.9,4.705,1.9,6.992,2.976a34.17,34.17,0,0,0,2.611-8.305c-.139-.046-1.519-.477-1.519-.477l-1.114-.329-1.119-.312-1.123-.294-1.13-.278L75.8,16.282A31.8,31.8,0,0,1,73.491,23.6M27.08,26.42l.239-.1c0-.086,0-.571,0-.571-.082.226-.162.452-.241.674m7.674-3.238c1.251.862,2.572,1.813,3.944,2.841a35.709,35.709,0,0,0,2.394-2.653l-1.553-.435-.9-.234-1.268-.307-.88-.2-.747-.156q-.462.577-.989,1.14m-20.284,2.8.127-.1c.043-.087.085-.174.13-.262-.087.121-.172.24-.257.36M29.1,23.687q-.036.846-.042,1.726.334-.2.667-.415-.325-.669-.625-1.31m15.036-1.246c1.907.618,3.871,1.333,5.859,2.13a36.587,36.587,0,0,0,2.767-4.423c-2.234-.252-4.812-.492-6.87-.638a25.734,25.734,0,0,1-1.756,2.931m49.746-1.769a70.336,70.336,0,0,1,6.247,3.512,17.784,17.784,0,0,0-.994-7.8,54.5,54.5,0,0,0-5.712-2.933,19.876,19.876,0,0,1,.459,7.221m-63.439,1.79q.342.728.722,1.5.364-.287.714-.588c-.467-.3-.954-.61-1.436-.914m-11.9.327q-.32.435-.614.868l.621-.354.78-.423.8-.409.463-.225.136-.261a16.084,16.084,0,0,0-2.189.8m45.979-2.118c2.39.651,4.79,1.407,7.152,2.254a30.039,30.039,0,0,0,2.237-7.037c-.115-.022-1.491-.275-1.491-.275l-1.15-.192-1.159-.176-1.159-.158-1.165-.142-1.16-.123L66.36,14.8a24,24,0,0,1-1.833,5.875m-32.266.852q.461.3.936.609.208-.217.406-.436c-.439-.06-.89-.118-1.342-.174m4.59-1.042c1.746.366,3.555.827,5.4,1.374a25.327,25.327,0,0,0,1.521-2.383c-2.132.022-4.555.1-6.464.208-.163.311-.3.551-.454.8M22.118,18.687q-.755.744-1.449,1.512l.546-.137.653-.142.228-.043.008.023q.414-.533.883-1.054a7.135,7.135,0,0,0-.869-.158m33.418.023c2.358.386,4.749.881,7.126,1.475a25.247,25.247,0,0,0,1.785-5.521c-2.349-.1-5.176-.168-7.464-.168H56.83a18.115,18.115,0,0,1-1.294,4.214M34.872,20.1l.087-.127-.433.068.346.059M85.2,17.027c2.336.814,4.631,1.74,6.845,2.764a16.715,16.715,0,0,0-.884-7.282,58.55,58.55,0,0,0-6.436-2.089,17.914,17.914,0,0,1,.475,6.607M24.808,19.509l.143-.011-.094-.038-.049.049m2.066-1.053c-.078-.212-.152-.417-.222-.619-.135.108-.268.218-.4.329Zm19.806-.7c2.266.113,4.585.334,6.918.66A19.745,19.745,0,0,0,54.87,14.59c-2.4.195-5.227.487-7.482.777a14.172,14.172,0,0,1-.707,2.389m-8.514-.288c-.029.128-.063.257-.1.388,1.649-.126,3.342-.19,5.051-.19q.768,0,1.541.017a13.92,13.92,0,0,0,.681-1.941c-2.332.5-5.029,1.152-7.172,1.726M24.4,17.427c.539-.495,1.106-.966,1.7-1.408q-.088-.337-.154-.649-1.156.884-2.239,1.841l.126.036-.006.051.129.037.014-.048Zm3.841-.414c.03-.129.061-.256.092-.383l-.182.119.09.264m72.354-1.894q1.186.723,2.332,1.507-1.283-1.1-2.641-2.149.161.316.309.643m-24.542-.661c2.461.533,4.9,1.186,7.275,1.945A15.2,15.2,0,0,0,82.568,9.9,62.779,62.779,0,0,0,75.6,8.75a15.677,15.677,0,0,1,.451,5.708M38.278,15.606a71.141,71.141,0,0,1,7.368-1.746,5.77,5.77,0,0,0-.1-1.44A70.184,70.184,0,0,0,38.262,15.5c.006.035.01.069.016.1M27.58,14.18c.032.233.071.483.116.74q.693-.432,1.389-.788.236-.645.5-1.246-1.01.606-2.01,1.294M66.614,13c2.522.237,5.047.6,7.533,1.071a13.288,13.288,0,0,0-.608-5.508c-1.618-.121-3.267-.183-4.909-.183-.8,0-1.606.014-2.408.043A13.107,13.107,0,0,1,66.614,13m-19.229-1.21a7.176,7.176,0,0,1,.194,1.744c2.481-.382,5.014-.643,7.552-.777A8.531,8.531,0,0,0,54.859,9.8a69.666,69.666,0,0,0-7.474,1.989m-3.274-1.675c-1.707.964-3.707,2.158-5.488,3.272,2.022-.96,4.1-1.827,6.2-2.591a3.559,3.559,0,0,0-.708-.681m48.463.969c1.671.682,3.306,1.44,4.889,2.268a12.373,12.373,0,0,0-3.057-2.879c-.534-.319-1.107-.652-1.686-.975-.479-.238-.983-.484-1.5-.73a13.366,13.366,0,0,1,1.355,2.316m-60.124.261c-.308.532-.639,1.153-.956,1.785.093-.03.19-.059.294-.09q.832-1.138,1.731-2.178-.531.228-1.069.484M59.2,12.651c1.821,0,3.663.064,5.488.191a11.051,11.051,0,0,0-.447-4.318,68.562,68.562,0,0,0-7.484.91,10.279,10.279,0,0,1,.308,3.246c.71-.02,1.424-.03,2.135-.03m-22.5-2.63s-.433.426-.561.557l-.552.577-.542.6-.258.3q1.48-1.359,3.04-2.581c-.235.048-.474.1-.715.163-.139.128-.276.258-.413.389m4.463-.832c-.917.69-1.944,1.5-2.955,2.317q1.836-1.182,3.735-2.229-.374-.061-.78-.088m4.819.026a5.115,5.115,0,0,1,.722.922A71.078,71.078,0,0,1,54.082,8.12a5.512,5.512,0,0,0-1.609-1.563c-2.01.758-4.44,1.756-6.489,2.658m37.956-.9A60.71,60.71,0,0,1,89.9,10.07a11.623,11.623,0,0,0-3.972-3.645c-1.2-.368-2.607-.763-4-1.126a12.054,12.054,0,0,1,2,3.013M43.418,7.721a6.87,6.87,0,0,1,.873.326,60.987,60.987,0,0,1,5.7-2.484,11.686,11.686,0,0,0-1.985-.254c-.227.1-.861.4-.861.4s-.491.237-.677.329l-.855.439-.844.459s-.7.4-.842.48Zm31.447-.9a64.883,64.883,0,0,1,6.657.964A10.424,10.424,0,0,0,77.89,4.349c-1.555-.194-3.409-.374-5.155-.507a10.609,10.609,0,0,1,2.13,2.976M54.678,5.909a6.364,6.364,0,0,1,1.373,1.814,70.444,70.444,0,0,1,7.356-.973A7.365,7.365,0,0,0,61,4.413c-1.938.4-4.283.959-6.32,1.5m-12.642.12q-.268.15-.534.308l-.623.383-.614.4L39.9,7.38q.41-.026.8-.026h.048Q42.039,6.49,43.38,5.72q-.661.134-1.344.309m26.706.512c1.293,0,2.592.037,3.877.112a9.006,9.006,0,0,0-3.095-2.975c-1.791.078-3.945.232-5.888.417a8.961,8.961,0,0,1,1.886,2.523c1.07-.051,2.151-.076,3.22-.076M51.258,4.015a12.769,12.769,0,0,1,1.5.587c1.7-.544,3.423-1.009,5.152-1.391a15.406,15.406,0,0,0-2.747-.341q-.389.092-.777.193L53.5,3.3l-.883.262-.881.284ZM60.176,2.03c.37.145.766.317,1.218.524q1.8-.278,3.607-.436a19.639,19.639,0,0,0-2.54-.245q-.432.016-.864.043s-.694.048-.895.065Z" transform="translate(0 0)" fill="#fff"/>
  </g>
</svg>
